# xmcd
#
# Track frame offsets:
#	150
#	21970
#	39331
#	52284
#	73458
#	86250
#	100713
#	121046
#	137539
#	155157
#	175441
#	190341
#
# Disc length: 2778 seconds
#
# Revision: 0
# Processed by: cddbd v1.5.2PL0 Copyright (c) Steve Scherf et al.
# Submitted via: audiograbber 1.83.01
#
DISCID=a60ad80c
DTITLE=Various Artist - A Tribute to Garth Brooks
DYEAR=2008
DGENRE=Rock
TTITLE0=Teddy "Zig Zag" Andreadis (Guns and Roses) - Friends In Low Places
TTITLE1=Allan and Mat Jardine (The Beach Boys) - Papa Loved Mama
TTITLE2=Herb Peterson (The Desert Rose Band) - She's Every Woman
TTITLE3=Robin McAuley (MSG) - That Summer
TTITLE4=Jason Scheff (Chicago) - The Fever
TTITLE5=Bobby Kimball (Toto) - The Dance
TTITLE6=Dave Amato (REO Speedwagon) - Shameless
TTITLE7=Half Penny Marvel - To Make You Feel My Love
TTITLE8=Denny Laine (Moody Blues and Wings) - Thunder Rolls
TTITLE9=Tony Guiliano and Maryanna Elliot - The River
TTITLE10=Gary Griffin - Mr. Blue
TTITLE11=Spencer Davis and Carmine Appice - Standing Outside The Fire
EXTD=
EXTT0=
EXTT1=
EXTT2=
EXTT3=
EXTT4=
EXTT5=
EXTT6=
EXTT7=
EXTT8=
EXTT9=
EXTT10=
EXTT11=
PLAYORDER=
